<?xml version="1.0" encoding="UTF-8" standalone="no"?>
<!DOCTYPE svg PUBLIC "-//W3C//DTD SVG 1.1//EN" "http://www.w3.org/Graphics/SVG/1.1/DTD/svg11.dtd">
<svg width="100%" height="100%" viewBox="0 0 1300 3109" version="1.1" xmlns="http://www.w3.org/2000/svg" xmlns:xlink="http://www.w3.org/1999/xlink" xml:space="preserve" xmlns:serif="http://www.serif.com/" style="fill-rule:evenodd;clip-rule:evenodd;stroke-linecap:round;stroke-linejoin:round;stroke-miterlimit:1.5;">
    <g transform="matrix(1,0,0,1,-5584.02,0)">
        <g id="body" transform="matrix(1,0,0,2.04675,1534.02,0)">
            <rect x="4050" y="0" width="1300" height="1518.59" style="fill:rgb(230,230,230);"/>
            <clipPath id="_clip1">
                <rect x="4050" y="0" width="1300" height="1518.59"/>
            </clipPath>
            <g clip-path="url(#_clip1)">
                <g transform="matrix(-0.521942,-0.441691,0.801608,-0.226119,6115.13,3550.39)">
                    <path d="M3185.6,1577.82C3185.46,1999.25 4248.12,1974.53 4371.03,1080.69C4428.52,662.591 5364.77,444.967 5350,843.143" style="fill:none;stroke:url(#_Linear2);stroke-width:92.53px;"/>
                </g>
                <g transform="matrix(1,0,0,0.48858,-1534.02,0)">
                    <path d="M5510.83,895.632L7217.13,235.717" style="fill:none;stroke:url(#_Linear3);stroke-width:91.29px;"/>
                </g>
            </g>
        </g>
    </g>
    <defs>
        <linearGradient id="_Linear2" x1="0" y1="0" x2="1" y2="0" gradientUnits="userSpaceOnUse" gradientTransform="matrix(1300.25,0,0,629.378,4050,849.911)"><stop offset="0" style="stop-color:rgb(0,8,255);stop-opacity:0.2"/><stop offset="0.44" style="stop-color:rgb(67,117,240);stop-opacity:0.2"/><stop offset="1" style="stop-color:rgb(255,215,0);stop-opacity:0.2"/></linearGradient>
        <linearGradient id="_Linear3" x1="0" y1="0" x2="1" y2="0" gradientUnits="userSpaceOnUse" gradientTransform="matrix(3607.96,0,0,163.433,3662.31,871.943)"><stop offset="0" style="stop-color:rgb(255,3,0);stop-opacity:0.25"/><stop offset="0.44" style="stop-color:rgb(77,240,67);stop-opacity:0.25"/><stop offset="1" style="stop-color:rgb(255,20,0);stop-opacity:0.25"/></linearGradient>
    </defs>
</svg>
