<?xml version="1.0" encoding="UTF-8" standalone="no"?>
<!DOCTYPE svg PUBLIC "-//W3C//DTD SVG 1.1//EN" "http://www.w3.org/Graphics/SVG/1.1/DTD/svg11.dtd">
<svg width="100%" height="100%" viewBox="0 0 338 338" version="1.1" xmlns="http://www.w3.org/2000/svg" xmlns:xlink="http://www.w3.org/1999/xlink" xml:space="preserve" xmlns:serif="http://www.serif.com/" style="fill-rule:evenodd;clip-rule:evenodd;stroke-linejoin:round;stroke-miterlimit:2;">
    <g transform="matrix(1,0,0,1,-197.706,-2207.44)">
        <g id="Artboard6">
            <rect x="197.706" y="2207.44" width="337.263" height="337.263" style="fill:none;"/>
            <g transform="matrix(2.24776,0,0,2.33134,-313.662,-3146.45)">
                <path d="M307.702,2315.52C304.257,2315.19 300.789,2315.19 297.344,2315.52L295.639,2323.83C292.337,2324.33 289.102,2325.2 285.99,2326.41L280.36,2320.07C277.21,2321.5 274.206,2323.24 271.391,2325.25L274.066,2333.3C271.459,2335.38 269.091,2337.75 267.003,2340.36L258.958,2337.68C256.946,2340.5 255.211,2343.5 253.779,2346.65L260.118,2352.28C258.905,2355.39 258.038,2358.63 257.533,2361.93L249.228,2363.64C248.894,2367.08 248.894,2370.55 249.228,2373.99L257.533,2375.7C258.038,2379 258.905,2382.24 260.118,2385.35L253.779,2390.98C255.211,2394.13 256.946,2397.13 258.958,2399.95L267.003,2397.27C269.091,2399.88 271.459,2402.25 274.066,2404.34L271.391,2412.38C274.206,2414.39 277.21,2416.13 280.36,2417.56L285.99,2411.22C289.102,2412.43 292.337,2413.3 295.639,2413.81L297.344,2422.11C300.789,2422.45 304.257,2422.45 307.702,2422.11L309.408,2413.81C312.709,2413.3 315.944,2412.43 319.056,2411.22L324.686,2417.56C327.836,2416.13 330.84,2414.39 333.655,2412.38L330.98,2404.34C333.587,2402.25 335.955,2399.88 338.044,2397.27L346.088,2399.95C348.1,2397.13 349.835,2394.13 351.267,2390.98L344.928,2385.35C346.141,2382.24 347.008,2379 347.513,2375.7L355.818,2373.99C356.153,2370.55 356.153,2367.08 355.818,2363.64L347.513,2361.93C347.008,2358.63 346.141,2355.39 344.928,2352.28L351.267,2346.65C349.835,2343.5 348.1,2340.5 346.088,2337.68L338.044,2340.36C335.955,2337.75 333.587,2335.38 330.98,2333.3L333.655,2325.25C330.84,2323.24 327.836,2321.5 324.686,2320.07L319.056,2326.41C315.944,2325.2 312.709,2324.33 309.408,2323.83L307.702,2315.52ZM302.523,2333.34C322.1,2333.34 337.995,2349.24 337.995,2368.82C337.995,2388.39 322.1,2404.29 302.523,2404.29C282.946,2404.29 267.051,2388.39 267.051,2368.82C267.051,2349.24 282.946,2333.34 302.523,2333.34Z" style="fill:rgb(43,132,185);"/>
            </g>
        </g>
    </g>
</svg>
