<?xml version="1.0" encoding="UTF-8" standalone="no"?>
<!DOCTYPE svg PUBLIC "-//W3C//DTD SVG 1.1//EN" "http://www.w3.org/Graphics/SVG/1.1/DTD/svg11.dtd">
<svg width="100%" height="100%" viewBox="0 0 1433 176" version="1.1" xmlns="http://www.w3.org/2000/svg" xmlns:xlink="http://www.w3.org/1999/xlink" xml:space="preserve" xmlns:serif="http://www.serif.com/" style="fill-rule:evenodd;clip-rule:evenodd;stroke-linejoin:round;stroke-miterlimit:2;">
    <g transform="matrix(1,0,0,1,-423.325,-2188.05)">
        <g>
            <g transform="matrix(5.56379,0,0,5.56379,-61.6909,1866.9)">
                <g transform="matrix(0.132402,0,0,0.132402,60.4077,-7.69026)">
                    <path d="M316.961,671.597C319.629,671.597 321.732,672.828 323.271,675.291C324.81,677.753 325.579,681.139 325.579,685.448C325.579,692.835 323.835,699.195 320.347,704.53C314.601,713.354 307.061,720.227 297.724,725.152C288.388,730.077 277.257,732.539 264.33,732.539C244.631,732.539 229.345,726.64 218.47,714.841C207.594,703.043 202.157,687.089 202.157,666.981C202.157,652.822 205.132,639.639 211.083,627.43C217.033,615.221 225.292,605.526 235.859,598.344C246.427,591.163 258.379,587.572 271.717,587.572C283.618,587.572 293.159,591.111 300.341,598.19C307.522,605.269 311.113,614.862 311.113,626.968C311.113,641.127 306.035,653.284 295.878,663.441C285.721,673.598 268.433,681.652 244.016,687.602C248.94,697.041 257.251,701.76 268.946,701.76C277.359,701.76 284.284,699.811 289.722,695.912C295.16,692.014 301.469,685.448 308.651,676.214C311.113,673.136 313.883,671.597 316.961,671.597ZM266.484,617.735C258.892,617.735 252.48,622.146 247.248,630.97C242.015,639.793 239.399,650.463 239.399,662.979L239.399,663.595C251.505,660.722 261.047,656.413 268.023,650.668C275,644.923 278.488,638.254 278.488,630.662C278.488,626.763 277.411,623.634 275.256,621.274C273.102,618.915 270.178,617.735 266.484,617.735Z" style="fill:rgb(39,132,185);"/>
                </g>
                <g transform="matrix(-0.165683,0,0,-0.165683,111.097,68.7046)">
                    <path d="M21.187,43.484C37.666,25.731 56.904,16.157 78.838,14.572C92.899,59.077 50.154,73.435 21.187,43.484" style="fill:rgb(67,166,188);"/>
                    <g transform="matrix(-4.32325,0,0,-4.32325,12799.4,294.433)">
                        <g transform="matrix(-0.112447,-0.0151154,0.0151154,-0.112447,3476.34,137.649)">
                            <g>
                                <path d="M4762.78,78.32C4762.7,78.516 4762.62,78.714 4762.53,78.915C4762.44,79.142 4762.33,79.373 4762.23,79.606C4762.06,79.976 4761.88,80.353 4761.69,80.735L4761.6,80.915C4761.51,81.096 4761.42,81.277 4761.32,81.46L4761.22,81.644C4734.29,59.094 4708.47,50.412 4661.27,60.264L4660.71,60.381L4660.56,60.41C4721.24,-13.255 4888.48,-16.336 4891.53,60.41C4893.62,113.057 4802.03,116.237 4762.27,82.498L4761.22,81.644L4761.32,81.46C4761.42,81.277 4761.51,81.096 4761.6,80.915L4761.69,80.735C4761.88,80.353 4762.06,79.976 4762.23,79.606C4762.33,79.373 4762.44,79.142 4762.53,78.915C4762.62,78.714 4762.7,78.516 4762.78,78.32ZM4762.9,77.992L4762.84,78.156L4762.9,77.992ZM4762.97,77.809C4763.01,77.708 4763.05,77.608 4763.08,77.509L4763.14,77.35C4763.16,77.297 4763.17,77.244 4763.19,77.192L4763.14,77.35L4763.08,77.509C4763.05,77.608 4763.01,77.708 4762.97,77.809ZM4763.3,76.88C4763.38,76.621 4763.46,76.368 4763.53,76.12C4763.57,75.961 4763.61,75.804 4763.65,75.649C4763.73,75.33 4763.8,75.021 4763.86,74.723C4763.9,74.49 4763.93,74.263 4763.96,74.043L4763.98,73.927L4763.99,73.831C4763.99,73.78 4764,73.729 4764,73.679L4763.99,73.803L4763.98,73.927L4763.96,74.043C4763.93,74.263 4763.9,74.49 4763.86,74.723C4763.8,75.021 4763.73,75.33 4763.65,75.649C4763.61,75.804 4763.57,75.961 4763.53,76.12C4763.44,76.417 4763.35,76.723 4763.24,77.036L4763.3,76.88ZM4764.04,73.029C4764.04,72.973 4764.04,72.916 4764.04,72.861C4764.04,72.935 4764.04,73.01 4764.03,73.086L4764.04,73.029ZM4764.03,72.641C4764.03,72.551 4764.02,72.463 4764.02,72.377C4764.02,72.481 4764.03,72.587 4764.03,72.696C4764.03,72.714 4764.03,72.732 4764.03,72.75L4764.03,72.696L4764.03,72.641ZM4764.01,72.325C4764.01,72.291 4764,72.257 4764,72.223L4764.01,72.274L4764.01,72.325ZM4763.96,72.103C4763.94,72.061 4763.93,72.019 4763.91,71.977L4763.89,71.92L4763.86,71.859L4763.83,71.798C4763.85,71.834 4763.86,71.869 4763.88,71.905L4763.89,71.92L4763.91,71.977C4763.93,72.039 4763.96,72.101 4763.98,72.163L4763.96,72.103ZM4763.74,71.613L4763.77,71.675L4763.74,71.613ZM4763.47,71.136C4763.43,71.086 4763.4,71.036 4763.37,70.987L4763.32,70.923C4763.26,70.832 4763.19,70.74 4763.12,70.648C4763.1,70.612 4763.07,70.576 4763.04,70.539L4762.99,70.475C4762.95,70.432 4762.92,70.389 4762.88,70.346L4762.94,70.41C4762.95,70.432 4762.97,70.453 4762.99,70.475L4763.04,70.539C4763.07,70.576 4763.1,70.612 4763.12,70.648C4763.19,70.74 4763.26,70.832 4763.32,70.923L4763.37,70.987C4763.4,71.036 4763.43,71.086 4763.47,71.136C4763.49,71.17 4763.51,71.205 4763.53,71.239L4763.49,71.176L4763.47,71.136ZM4762.77,70.216C4762.75,70.194 4762.73,70.173 4762.71,70.151C4762.5,69.91 4762.27,69.667 4762.01,69.422C4761.95,69.358 4761.88,69.293 4761.81,69.229C4761.88,69.293 4761.95,69.358 4762.01,69.422C4762.25,69.645 4762.46,69.867 4762.66,70.086L4762.71,70.151C4762.75,70.194 4762.79,70.238 4762.83,70.281L4762.77,70.216ZM4761.66,69.095C4761.46,68.916 4761.25,68.736 4761.03,68.554C4760.95,68.488 4760.87,68.422 4760.78,68.356L4760.87,68.423C4760.92,68.467 4760.98,68.511 4761.03,68.554C4761.28,68.758 4761.51,68.961 4761.73,69.162L4761.66,69.095ZM4760.52,68.153C4760.58,68.198 4760.64,68.243 4760.7,68.288L4760.61,68.22L4760.52,68.153ZM4760.34,68.017C4760.21,67.917 4760.07,67.817 4759.93,67.717C4759.85,67.658 4759.77,67.599 4759.69,67.54L4759.78,67.608C4759.83,67.644 4759.88,67.68 4759.93,67.717C4760.11,67.84 4760.27,67.962 4760.43,68.085L4760.34,68.017ZM4759.51,67.42C4759.44,67.369 4759.36,67.318 4759.29,67.266L4759.39,67.335C4759.43,67.363 4759.47,67.392 4759.51,67.42ZM4759.08,67.129C4758.57,66.786 4758.02,66.442 4757.43,66.098L4757.55,66.167C4758.13,66.511 4758.68,66.855 4759.19,67.198L4759.08,67.129ZM4757.19,65.961C4756.88,65.777 4756.55,65.593 4756.21,65.41L4756.34,65.479C4756.67,65.662 4757,65.846 4757.31,66.029L4757.19,65.961ZM4755.83,65.204C4755.87,65.226 4755.91,65.249 4755.96,65.272L4756.09,65.341C4756,65.295 4755.92,65.249 4755.83,65.204ZM4755.57,65.066C4755.47,65.014 4755.37,64.962 4755.27,64.91C4754.57,64.55 4753.84,64.191 4753.08,63.835C4753.84,64.191 4754.57,64.55 4755.27,64.91C4755.42,64.985 4755.56,65.06 4755.7,65.135L4755.57,65.066ZM4752.22,63.444C4751.91,63.304 4751.59,63.163 4751.27,63.024C4751.59,63.163 4751.91,63.304 4752.22,63.444ZM4750.64,62.756C4750.21,62.577 4749.78,62.4 4749.34,62.224L4749.67,62.356C4750.11,62.533 4750.53,62.711 4750.95,62.889L4750.64,62.756ZM4748.67,61.96L4749.01,62.092L4748.67,61.96ZM4748,61.699C4747.26,61.419 4746.51,61.143 4745.74,60.872C4744.03,60.269 4742.22,59.686 4740.33,59.129C4738.82,58.684 4737.25,58.257 4735.64,57.849C4733.42,57.29 4731.12,56.77 4728.73,56.298C4728.52,56.256 4728.3,56.214 4728.09,56.172L4728.55,56.262L4728.73,56.298C4731.12,56.77 4733.42,57.29 4735.64,57.849C4737.25,58.257 4738.82,58.684 4740.33,59.129C4742.22,59.686 4744.03,60.269 4745.74,60.872C4746.63,61.186 4747.5,61.506 4748.34,61.829L4748,61.699ZM4661.79,59.718L4661.53,59.811L4661.79,59.718ZM4662.85,59.353L4662.59,59.443L4662.85,59.353ZM4663.26,59.216C4663.65,59.085 4664.05,58.955 4664.45,58.829L4664.18,58.914C4663.87,59.013 4663.57,59.114 4663.26,59.216ZM4665.24,58.577C4665.07,58.632 4664.89,58.688 4664.71,58.744L4664.98,58.66L4665.24,58.577ZM4666.05,58.332C4666.19,58.289 4666.33,58.247 4666.47,58.204L4666.58,58.173L4666.85,58.094C4666.72,58.13 4666.6,58.167 4666.47,58.204C4666.24,58.273 4666.01,58.343 4665.78,58.413L4666.05,58.332ZM4667.92,57.787L4667.65,57.862L4667.92,57.787ZM4668.46,57.638C4669.02,57.482 4669.59,57.332 4670.16,57.187C4671.24,56.909 4672.32,56.649 4673.41,56.405C4673.69,56.343 4673.97,56.281 4674.25,56.22C4674.52,56.162 4674.79,56.105 4675.06,56.049C4675.2,56.02 4675.34,55.99 4675.49,55.961L4675.22,56.017L4675.06,56.049C4674.79,56.105 4674.52,56.162 4674.25,56.22C4673.97,56.281 4673.69,56.343 4673.41,56.405C4672.32,56.649 4671.24,56.909 4670.16,57.187C4669.5,57.355 4668.85,57.53 4668.19,57.712L4668.46,57.638ZM4727.16,55.996C4726.6,55.892 4726.04,55.791 4725.47,55.693L4725.28,55.66L4724.81,55.579C4725.03,55.616 4725.25,55.654 4725.47,55.693C4726.2,55.818 4726.91,55.949 4727.63,56.083L4727.16,55.996ZM4676.35,55.789C4676.88,55.686 4677.4,55.586 4677.93,55.49C4677.4,55.586 4676.88,55.686 4676.35,55.789C4676.24,55.81 4676.14,55.831 4676.03,55.852L4676.3,55.798L4676.35,55.789ZM4678.67,55.359C4678.79,55.339 4678.9,55.319 4679.02,55.299L4678.75,55.345L4678.67,55.359C4678.52,55.386 4678.36,55.414 4678.21,55.441L4678.48,55.393L4678.67,55.359ZM4722.42,55.194C4721.66,55.079 4720.9,54.97 4720.14,54.865C4719.51,54.78 4718.88,54.698 4718.24,54.62C4717.99,54.589 4717.75,54.56 4717.5,54.53C4717.25,54.501 4717.01,54.473 4716.76,54.445C4716.26,54.389 4715.76,54.335 4715.25,54.283C4715.67,54.326 4716.09,54.371 4716.51,54.417L4716.76,54.445C4717.01,54.473 4717.25,54.501 4717.5,54.53C4717.75,54.56 4717.99,54.589 4718.24,54.62C4718.88,54.698 4719.51,54.78 4720.14,54.865C4721.07,54.992 4721.99,55.127 4722.9,55.268L4722.42,55.194ZM4679.3,55.252C4679.57,55.206 4679.84,55.161 4680.11,55.117C4679.93,55.147 4679.75,55.176 4679.57,55.207L4679.3,55.252ZM4681.2,54.947C4681.98,54.829 4682.75,54.719 4683.53,54.617C4683.66,54.6 4683.79,54.582 4683.93,54.565L4683.65,54.6L4683.53,54.617C4682.66,54.731 4681.79,54.855 4680.93,54.988L4681.2,54.947ZM4684.47,54.496C4684.79,54.457 4685.11,54.418 4685.43,54.381L4685.56,54.366L4685.83,54.336C4686.03,54.313 4686.23,54.291 4686.43,54.27C4686.59,54.252 4686.76,54.235 4686.92,54.218C4687.11,54.198 4687.31,54.178 4687.5,54.159L4687.74,54.136L4687.86,54.124C4688.47,54.066 4689.08,54.011 4689.69,53.962L4689.91,53.943L4690.19,53.922L4690.42,53.904C4690.7,53.883 4690.99,53.862 4691.27,53.842C4690.99,53.862 4690.7,53.883 4690.42,53.904L4690.19,53.922L4689.91,53.943L4689.69,53.962C4689.08,54.011 4688.47,54.066 4687.86,54.124L4687.74,54.136L4687.5,54.159C4687.4,54.169 4687.3,54.179 4687.19,54.19L4686.92,54.218C4686.76,54.235 4686.59,54.252 4686.43,54.27C4686.23,54.291 4686.03,54.313 4685.83,54.336L4685.56,54.366L4685.43,54.381C4685.02,54.429 4684.61,54.479 4684.2,54.53L4684.47,54.496ZM4714.4,54.198C4714.2,54.179 4714,54.16 4713.8,54.141C4713.59,54.122 4713.37,54.103 4713.16,54.084L4712.97,54.067L4712.88,54.059C4712.7,54.044 4712.53,54.03 4712.36,54.016C4712.14,53.997 4711.91,53.979 4711.69,53.962C4711.91,53.979 4712.14,53.997 4712.36,54.016C4712.53,54.03 4712.7,54.044 4712.88,54.059L4712.97,54.067L4713.23,54.09C4713.42,54.106 4713.61,54.124 4713.8,54.141C4714,54.16 4714.2,54.179 4714.4,54.198ZM4711.18,53.923C4711.08,53.916 4710.98,53.908 4710.88,53.901L4710.66,53.885L4710.58,53.88C4710.09,53.845 4709.6,53.813 4709.11,53.784C4709.6,53.813 4710.09,53.845 4710.58,53.88L4710.66,53.885L4710.88,53.901C4711.07,53.915 4711.25,53.928 4711.44,53.942L4711.18,53.923ZM4692.35,53.772C4692.81,53.744 4693.27,53.719 4693.72,53.696C4694,53.682 4694.28,53.669 4694.56,53.656C4694.82,53.645 4695.07,53.635 4695.33,53.625C4695.07,53.635 4694.82,53.645 4694.56,53.656C4694.28,53.669 4694,53.682 4693.72,53.696C4693.18,53.724 4692.63,53.754 4692.08,53.789L4692.35,53.772ZM4708.85,53.769C4708.49,53.748 4708.13,53.728 4707.77,53.71L4707.55,53.699L4707.4,53.691C4707.19,53.681 4706.98,53.671 4706.77,53.662C4706.98,53.671 4707.19,53.681 4707.4,53.691L4707.55,53.699L4707.77,53.71C4708.05,53.724 4708.32,53.738 4708.59,53.754L4708.85,53.769ZM4706.24,53.64C4706.02,53.631 4705.8,53.623 4705.58,53.615C4705.45,53.61 4705.32,53.606 4705.19,53.602L4705.46,53.611L4705.58,53.615C4705.71,53.62 4705.85,53.625 4705.98,53.63L4706.24,53.64C4706.33,53.644 4706.42,53.647 4706.51,53.651L4706.24,53.64ZM4695.87,53.605C4696.14,53.596 4696.4,53.588 4696.67,53.58C4696.32,53.59 4695.96,53.602 4695.6,53.615L4695.87,53.605ZM4704.39,53.578C4703.87,53.563 4703.34,53.552 4702.82,53.543L4703.08,53.548C4703.52,53.556 4703.95,53.566 4704.39,53.578L4704.4,53.578L4704.63,53.584L4704.4,53.578L4704.39,53.578ZM4700.17,53.526C4699.28,53.528 4698.38,53.54 4697.48,53.56L4697.75,53.554C4698.56,53.537 4699.36,53.528 4700.17,53.526L4700.42,53.525L4700.69,53.525L4700.42,53.525L4700.17,53.526ZM4702.04,53.533C4701.94,53.532 4701.85,53.531 4701.76,53.53L4701.49,53.528L4701.4,53.528C4701.16,53.526 4700.93,53.526 4700.69,53.525C4700.93,53.526 4701.16,53.526 4701.4,53.528L4701.49,53.528L4701.76,53.53C4701.85,53.531 4701.94,53.532 4702.04,53.533L4702.29,53.536L4702.49,53.539L4702.29,53.536L4702.04,53.533Z" style="fill:rgb(252,205,65);"/>
                            </g>
                        </g>
                    </g>
                </g>
            </g>
            <g transform="matrix(0.721712,0,0,0.721712,470.034,1831.95)">
                <text x="192px" y="731px" style="font-family:'Kollektif-Bold', 'Kollektif', sans-serif;font-weight:700;font-size:307.786px;fill:rgb(43,132,185);">l<tspan x="344.97px 611.204px 874.054px 1141.21px 1342.2px 1503.17px 1746.63px " y="731px 731px 731px 731px 731px 731px 731px ">evatika</tspan></text>
            </g>
        </g>
    </g>
</svg>
