<?xml version="1.0" standalone="no"?>
<!DOCTYPE svg PUBLIC "-//W3C//DTD SVG 20010904//EN"
 "http://www.w3.org/TR/2001/REC-SVG-20010904/DTD/svg10.dtd">
<svg version="1.0" xmlns="http://www.w3.org/2000/svg"
 width="605.000000pt" height="605.000000pt" viewBox="0 0 605.000000 605.000000"
 preserveAspectRatio="xMidYMid meet">
<metadata>
Created by potrace 1.11, written by Peter Selinger 2001-2013
</metadata>
<g transform="translate(0.000000,605.000000) scale(0.100000,-0.100000)"
fill="#000000" stroke="none">
<path d="M1919 5545 c-187 -30 -299 -82 -397 -184 -140 -146 -163 -414 -54
-621 108 -206 309 -352 632 -460 100 -33 238 -67 307 -75 12 -2 34 -6 50 -9
114 -23 378 -33 578 -21 331 19 624 93 909 228 106 51 263 148 331 205 163
136 369 337 361 351 -7 11 -143 131 -183 161 -122 93 -349 203 -463 225 -19 3
-51 9 -70 13 -69 14 -282 7 -350 -11 -116 -31 -227 -94 -305 -172 -38 -38 -75
-79 -81 -90 -11 -19 -18 -14 -105 71 -117 112 -195 168 -335 238 -142 70 -302
123 -429 141 -22 3 -52 8 -66 11 -55 11 -257 10 -330 -1z"/>
<path d="M2655 3555 c-117 -20 -134 -24 -205 -47 -485 -156 -851 -578 -995
-1147 -39 -157 -57 -300 -57 -466 0 -86 9 -242 18 -290 19 -113 27 -150 48
-225 107 -388 366 -675 726 -805 88 -31 230 -62 332 -72 110 -11 355 -7 433 6
39 7 84 14 100 17 68 11 216 59 300 99 347 163 602 470 633 764 25 246 -38
392 -172 394 -65 1 -126 -32 -177 -94 -156 -195 -239 -283 -359 -386 -72 -62
-207 -124 -300 -138 -25 -4 -54 -9 -65 -11 -37 -7 -180 -7 -225 1 -109 18
-215 64 -286 127 -35 31 -130 156 -123 162 2 2 49 16 104 31 446 120 787 289
989 491 162 162 277 389 305 599 8 68 7 300 -3 355 -54 313 -258 538 -561 620
-102 27 -340 35 -460 15z m214 -649 c82 -43 132 -136 133 -248 2 -230 -151
-424 -453 -571 -87 -42 -260 -105 -336 -121 l-32 -7 4 94 c9 209 51 382 131
540 63 125 158 236 244 286 87 50 238 63 309 27z"/>
</g>
</svg>
