<?xml version="1.0" encoding="UTF-8" standalone="no"?>
<!DOCTYPE svg PUBLIC "-//W3C//DTD SVG 1.1//EN" "http://www.w3.org/Graphics/SVG/1.1/DTD/svg11.dtd">
<svg width="100%" height="100%" viewBox="0 0 1300 1519" version="1.1" xmlns="http://www.w3.org/2000/svg" xmlns:xlink="http://www.w3.org/1999/xlink" xml:space="preserve" xmlns:serif="http://www.serif.com/" style="fill-rule:evenodd;clip-rule:evenodd;stroke-linecap:round;stroke-linejoin:round;stroke-miterlimit:1.5;">
    <g transform="matrix(1,0,0,1,-4050,0)">
        <rect id="Artboard4" x="4050" y="0" width="1300" height="1518.59" style="fill:none;"/>
        <clipPath id="_clip1">
            <rect id="Artboard41" serif:id="Artboard4" x="4050" y="0" width="1300" height="1518.59"/>
        </clipPath>
        <g clip-path="url(#_clip1)">
            <g transform="matrix(1.04388,0,0,0.925617,-235.044,66.5805)">
                <path d="M4050,843.143C4049.86,1264.57 4684.52,1278.87 4700,843.143C4715.02,420.38 5364.77,444.967 5350,843.143" style="fill:none;stroke:url(#_Linear2);stroke-width:92.53px;"/>
            </g>
            <g transform="matrix(-6.39195e-17,1.04388,-0.925617,-5.66777e-17,4836.69,-5023.05)">
                <path d="M4050,843.143C4049.86,1264.57 4684.52,1278.87 4700,843.143C4715.02,420.38 5364.77,444.967 5350,843.143" style="fill:none;stroke:url(#_Linear3);stroke-width:92.53px;"/>
            </g>
            <g transform="matrix(-0.779636,0.414492,0.531648,1,7614.68,-2067.17)">
                <rect x="3149" y="1197.81" width="680.456" height="320.78" style="fill:rgb(255,199,0);"/>
            </g>
            <g transform="matrix(-0.779636,0.414492,0.531648,1,7614.68,-1961.32)">
                <path d="M3829.46,1256.96C3829.46,1241.28 3821.46,1226.23 3807.24,1215.14C3793.01,1204.05 3773.71,1197.81 3753.59,1197.81C3576.15,1197.81 3149,1197.81 3149,1197.81L3149,1518.59L3829.46,1518.59L3829.46,1256.96Z" style="fill:rgb(255,140,0);"/>
            </g>
            <g transform="matrix(-0.779636,0.414492,0.531648,1,7614.68,-1765.75)">
                <path d="M3829.46,1266.34C3829.46,1228.49 3790.11,1197.81 3741.56,1197.81C3557.62,1197.81 3149,1197.81 3149,1197.81L3149,1518.59L3829.46,1518.59L3829.46,1266.34Z" style="fill:rgb(100,109,229);"/>
            </g>
        </g>
    </g>
    <defs>
        <linearGradient id="_Linear2" x1="0" y1="0" x2="1" y2="0" gradientUnits="userSpaceOnUse" gradientTransform="matrix(1300.25,0,0,629.378,4050,849.911)"><stop offset="0" style="stop-color:rgb(0,8,255);stop-opacity:1"/><stop offset="0.44" style="stop-color:rgb(67,117,240);stop-opacity:1"/><stop offset="1" style="stop-color:rgb(255,215,0);stop-opacity:1"/></linearGradient>
        <linearGradient id="_Linear3" x1="0" y1="0" x2="1" y2="0" gradientUnits="userSpaceOnUse" gradientTransform="matrix(1300.25,0,0,629.378,4050,849.911)"><stop offset="0" style="stop-color:rgb(0,8,255);stop-opacity:1"/><stop offset="0.44" style="stop-color:rgb(67,117,240);stop-opacity:1"/><stop offset="1" style="stop-color:rgb(255,215,0);stop-opacity:1"/></linearGradient>
    </defs>
</svg>
