<?xml version="1.0" encoding="UTF-8" standalone="no"?>
<!DOCTYPE svg PUBLIC "-//W3C//DTD SVG 1.1//EN" "http://www.w3.org/Graphics/SVG/1.1/DTD/svg11.dtd">
<svg width="100%" height="100%" viewBox="0 0 338 338" version="1.1" xmlns="http://www.w3.org/2000/svg" xmlns:xlink="http://www.w3.org/1999/xlink" xml:space="preserve" xmlns:serif="http://www.serif.com/" style="fill-rule:evenodd;clip-rule:evenodd;stroke-linejoin:round;stroke-miterlimit:2;">
    <g transform="matrix(1,0,0,1,-197.706,-2207.44)">
        <g id="Artboard6">
            <rect x="197.706" y="2207.44" width="337.263" height="337.263" style="fill:none;"/>
            <g transform="matrix(2.24776,0,0,2.33134,-313.662,-3146.45)">
                <path d="M311.729,2316.07C305.638,2315 299.408,2315 293.317,2316.07L292.768,2326.73C288.129,2327.8 283.701,2329.64 279.661,2332.16L271.734,2325.01C266.675,2328.56 262.27,2332.97 258.715,2338.03L265.864,2345.95C263.345,2349.99 261.51,2354.42 260.435,2359.06L249.775,2359.61C248.711,2365.7 248.711,2371.93 249.775,2378.02L260.435,2378.57C261.51,2383.21 263.345,2387.64 265.864,2391.68L258.715,2399.61C262.27,2404.66 266.675,2409.07 271.734,2412.62L279.661,2405.47C283.701,2407.99 288.129,2409.83 292.768,2410.9L293.317,2421.56C299.408,2422.63 305.638,2422.63 311.729,2421.56L312.278,2410.9C316.917,2409.83 321.345,2407.99 325.385,2405.47L333.312,2412.62C338.371,2409.07 342.776,2404.66 346.332,2399.61L339.182,2391.68C341.701,2387.64 343.536,2383.21 344.611,2378.57L355.272,2378.02C356.335,2371.93 356.335,2365.7 355.272,2359.61L344.611,2359.06C343.536,2354.42 341.701,2349.99 339.182,2345.95L346.332,2338.03C342.776,2332.97 338.371,2328.56 333.312,2325.01L325.385,2332.16C321.345,2329.64 316.917,2327.8 312.278,2326.73L311.729,2316.07ZM302.523,2342.34C317.133,2342.34 328.994,2354.21 328.994,2368.82C328.994,2383.43 317.133,2395.29 302.523,2395.29C287.913,2395.29 276.052,2383.43 276.052,2368.82C276.052,2354.21 287.913,2342.34 302.523,2342.34Z" style="fill:rgb(43,132,185);"/>
            </g>
            <g transform="matrix(1,0,0,1,-2.0387,1.50239)">
                <circle cx="368.376" cy="2374.57" r="22.218" style="fill:rgb(255,196,0);"/>
            </g>
        </g>
    </g>
</svg>
